<svg width="465" height="719" viewBox="0 0 465 719" fill="none" xmlns="http://www.w3.org/2000/svg">
<path d="M26 241.404C60.7465 262.937 92.6571 287.402 124.035 313.499C160.93 344.184 193.759 379.194 229.965 410.622C244.519 423.255 257.739 432.177 274.705 440.744C288.198 447.557 301.739 452.543 313.963 461.564C322.8 468.086 332.456 475.07 342.913 478.176C351.623 480.763 360.911 490.774 369.341 495.563C373.04 497.664 377.616 501.094 381.732 502.097C387.025 503.387 394.328 496.422 398.071 493.902C412.988 483.859 428.075 474.03 442.702 463.558C479.621 437.124 511.291 404.744 546.987 377.177C560.019 367.113 572.063 355.565 585.916 346.611C608.822 331.806 633.373 319.637 656.755 305.636C685.825 288.229 704.009 255.744 736.477 244.394C739.333 243.395 748.075 241.694 749.965 238.967C751.198 237.189 719.461 220.331 716.629 218.59C693.986 204.671 669.802 194.605 646.886 181.38C622.213 167.142 599.79 149.796 574.402 136.639C534.671 116.049 499.03 89.3034 461.563 64.8765C448.9 56.6205 433.412 53.7277 419.893 47.0465C408.375 41.3542 398.537 35.0176 388.312 27.4447C386.436 26.0554 383.738 25.7114 381.513 25.2298C380.372 24.9829 380.064 24.7234 379.21 25.6728C372.412 33.2242 356.981 38.7133 349.273 42.063C323.544 53.2441 307.251 59.1643 281.285 69.9707C266.665 76.0554 251.679 81.384 239.505 91.7875C231.752 98.413 224.458 104.981 215.709 110.282C180.452 131.646 155.645 166.203 119.539 185.588C96.3454 198.041 81.2255 209.224 65.9157 230.551C62.8902 234.765 58.4935 239.768 53.6339 241.404M214.82 413.795C214.82 444.115 214.446 474.705 213.595 504.79C213.347 513.557 219.195 520.755 225.164 526.783C232.908 534.604 241.422 542.037 249.392 549.601C271.697 570.77 294.03 593.035 321.392 606.851C330.612 611.507 338.88 619.523 346.844 626.026C351.791 630.065 357.078 631.947 362.428 635.236C363.093 635.644 367.117 638.947 367.532 638.947C374.228 638.947 381.221 633.687 386.996 630.906C413.162 618.303 440.303 609.42 461.65 588.913C476.142 574.992 494.699 566.452 511.398 555.649C519.771 550.231 528.525 544.911 536.169 538.467C542.917 532.778 548.575 525.861 555.973 520.941C573.219 509.471 588.434 503.048 588.434 480.873C588.434 454.511 587.962 428.929 593.062 402.936C595.231 391.88 597.866 381.238 601.841 370.702C603.27 366.913 604.359 363.424 604.359 359.362M373.171 201.099C375.684 202.147 379.202 203.54 383.119 205.006M383.119 205.006C389.151 207.265 396.129 209.698 401.832 211.314M383.119 205.006C391.409 202.078 406.018 204.284 411.552 209.873C412.722 211.054 413.179 211.879 413.06 212.407M383.119 205.006C382.24 205.317 381.432 205.685 380.714 206.113C369.712 212.665 353.731 233.984 364.101 247.188C373.04 258.57 404.105 269.069 404.105 245.356C404.105 240.538 412.787 243.237 416.135 242.367C424.81 240.114 426.179 229.883 424.346 222.312C423.584 219.165 418.478 214.873 413.06 212.407M401.832 211.314C408.038 213.072 412.734 213.863 413.06 212.407M401.832 211.314C404.53 209.69 408.887 210.507 413.06 212.407M401.832 211.314C401.553 211.482 401.292 211.676 401.05 211.898C399.077 213.71 400.668 224.517 400.668 227.133M376.608 251.432C326.815 281.594 249.352 328.23 197.497 360.58C184.593 368.631 171.772 376.822 159.116 385.264C145.886 394.089 146.322 389.475 146.322 396.352V409.369C146.322 425.233 148.041 440.929 148.041 456.808C148.041 467.313 145.11 483.286 149.759 492.677M148.038 515.235C126.852 537.846 112.628 557.316 105.075 587.551C103.84 592.494 97.6593 607.242 99.8235 612.524C102.189 618.296 122.039 589.398 122.833 587.84C129.614 574.539 132.998 558.816 137.345 544.547C139.132 538.683 140.67 528.851 144.697 524.106C146.904 521.506 149.88 519.972 152.05 520.502M152.05 520.502C153.72 520.91 154.913 522.539 154.913 525.842C154.913 543.095 151.694 560.656 148.358 577.771M152.05 520.502C150.437 525.282 151.164 535.704 151.094 536.641C150.073 550.299 149.131 564.025 148.358 577.771M152.05 520.502C152.288 519.798 152.577 519.216 152.927 518.805M148.358 577.771C147.675 581.277 146.986 584.764 146.32 588.226C142.779 606.615 136.436 632.662 141.928 651.382C143.118 655.438 145.07 659.258 146.224 663.338C148.008 669.643 146.32 650.225 146.32 643.668C146.32 621.773 147.123 599.745 148.358 577.771ZM152.927 518.805C153.827 517.747 155.132 517.823 157.013 519.864C163.278 526.659 164.774 538.391 167.324 546.861C167.484 547.39 167.644 547.919 167.807 548.448M152.927 518.805C155.333 522.546 157.251 526.266 158.445 528.638C161.715 535.133 164.822 541.748 167.807 548.448M152.927 518.805C147.07 509.7 138.324 500.466 130.089 510.221C121.545 520.343 117.858 534.213 113.572 546.476C109.351 558.555 104.053 570.587 98.5823 582.152C82.2429 616.689 79.2963 656.258 79.2963 694M167.807 548.448C172.278 563.033 177.834 577.54 184.128 591.408C185.777 595.042 187.558 598.58 189.399 602.069M167.807 548.448C175.598 565.941 182.553 584.017 189.399 602.069M189.399 602.069C196.355 615.248 204.185 627.725 209.143 642.029C211.923 650.053 211.976 659.774 206.374 645.982C200.524 631.583 194.998 616.834 189.399 602.069Z" stroke="#3B5C60" stroke-opacity="0.7" stroke-width="50" stroke-linecap="round"/>
</svg>
