<svg width="44" height="59" viewBox="0 0 44 59" fill="none" xmlns="http://www.w3.org/2000/svg">
<path d="M22.1824 2C33.4445 2 42.3649 10.0773 42.3649 19.7979V39.2021C42.3649 48.9227 33.4445 57 22.1824 57C10.9204 57 2 48.9227 2 39.2021V19.7979C2 10.0773 10.9204 2 22.1824 2Z" fill="#3B5C60" stroke="#FDF8F4" stroke-width="2"/>
<path d="M35.2517 25.1635C34.604 27.429 32.9578 28.7215 32.2156 29.0845L31.8108 33.2235C31.8783 33.3687 32.418 33.7463 34.0373 34.0949C36.0613 34.5305 37.6806 29.5203 37.883 28.8668C38.0854 28.2133 37.883 25.1635 37.883 24.2921C37.883 23.4208 36.0613 22.3316 35.2517 25.1635Z" fill="#3B5C60" stroke="#FDF8F4" stroke-width="2"/>
<path d="M11.4123 45.0755C12.9693 46.8256 16.9629 46.5339 18.765 46.1693C27.4154 45.2944 30.8755 37.3461 31.5243 33.4813C31.7405 31.5855 32.0433 26.7001 31.5243 22.325C30.8755 16.8561 21.5764 7.88718 13.3586 8.7622C5.14081 9.63722 5.35706 22.325 5.78958 22.9813C6.22209 23.6375 6.65462 26.4814 6.00585 29.9814C5.35707 33.4815 6.65462 37.4191 7.08713 38.0754C7.51965 38.7316 9.46597 42.888 11.4123 45.0755Z" fill="#3B5C60" stroke="#FDF8F4" stroke-width="2"/>
<path d="M41.054 32.5309C41.054 31.0071 39.2934 28.6125 38.4131 27.9595C37.0926 32.5309 35.9923 32.7485 34.8919 33.4016C33.6176 34.1578 32.4831 33.4096 31.8214 32.9732L31.8108 32.9662L32.471 37.973C40.6139 37.973 41.054 34.5021 41.054 32.5309Z" fill="#FDF8F4" stroke="#FDF8F4" stroke-width="2"/>
<path d="M16.4054 46.5777L19.5522 55.6843C24.1675 60.0207 39.1256 52.8534 36.8176 50.2975C33.8806 47.0452 32.0694 38.1939 31.7198 33.3516C31.6498 33.8575 31.578 36.1502 29.2023 39.6394C25.2164 45.4936 20.1116 45.9995 16.4054 46.5777Z" fill="#3B5C60" stroke="#FDF8F4" stroke-width="2"/>
<path d="M14.3764 37.8927C13.8505 37.888 11.8252 37.2852 10.8783 36.9844C11.3112 37.5727 12.5708 38.8406 14.1453 39.2055C15.7198 39.5705 17.8803 38.1187 18.5377 37.2421C17.2228 37.8995 14.9023 37.8975 14.3764 37.8927Z" fill="#FDF8F4" stroke="#FDF8F4" stroke-width="2" stroke-linecap="round" stroke-linejoin="round"/>
<path d="M10.5679 25.3223C10.7071 25.8001 9.782 25.7346 9.30202 25.6421C9.12796 25.0448 8.98713 23.862 9.81628 23.909C10.8527 23.9679 10.3938 24.725 10.5679 25.3223Z" fill="#FDF8F4"/>
<path d="M9.65006 25.3223C9.51081 25.8001 10.436 25.7346 10.9159 25.6421C11.09 25.0448 11.2308 23.862 10.4017 23.909C9.36524 23.9679 9.82412 24.725 9.65006 25.3223Z" fill="#FDF8F4"/>
<path d="M20.7357 25.633C20.1363 25.7882 20.2367 24.734 20.3199 24.2814C21.0691 24.0874 22.5676 23.8935 22.5676 24.6693C22.5676 25.6391 21.4849 25.439 20.7357 25.633Z" fill="#FDF8F4"/>
<path d="M9.47299 24.1079C7.93245 24.1082 7.11083 24.9685 6.39191 25.7215C7.00812 26.0442 8.55705 26.2608 9.16488 26.3669C11.0135 26.6896 12.5541 25.3988 12.5541 25.3988C12.5541 25.3988 11.3216 24.1076 9.47299 24.1079Z" stroke="#FDF8F4" stroke-width="2" stroke-linecap="round" stroke-linejoin="round"/>
<path d="M20.6419 24.1079C19.2939 24.1082 18.575 24.9685 17.9459 25.7215C18.4851 26.0442 19.8404 26.2608 20.3723 26.3669C21.9898 26.6896 23.3378 25.3988 23.3378 25.3988C23.3378 25.3988 22.2594 24.1076 20.6419 24.1079Z" stroke="#FDF8F4" stroke-width="2" stroke-linecap="round" stroke-linejoin="round"/>
<path d="M16.4054 21.7178C19.8862 20.0521 23.5044 21.7187 24.8784 23.3377C23.0464 22.4128 21.7182 22.3664 20.9854 22.1814C20.2526 21.9964 17.6267 22.4122 16.4054 22.6435V21.7178Z" fill="#FDF8F4" stroke="#FDF8F4" stroke-width="2" stroke-linecap="round" stroke-linejoin="round"/>
<path d="M11.7838 21.2421V22.1313C11.2032 21.9089 9.95019 21.0197 9.17129 21.0197C8.30046 21.0197 7.90156 20.9286 6.99422 21.6865C4.59943 23.6871 6.05082 21.6865 6.12339 21.4643C6.26853 21.1679 6.8636 20.7068 8.08277 20.3511C9.30193 19.9955 11.0581 20.7235 11.7838 21.2421Z" fill="#FDF8F4" stroke="#FDF8F4" stroke-width="2" stroke-linecap="round" stroke-linejoin="round"/>
<path d="M14.4369 37.9257C13.2387 37.7267 11.6554 37.1797 11.0135 36.6824C11.6554 36.4338 11.3986 36.5333 12.0833 35.9365C12.768 35.3398 13.6524 35.8537 14.009 36.1853C14.6509 35.4393 15.8779 36.0281 16.1486 36.1853C16.5766 36.4338 17.6464 36.9311 18.7162 36.9311C18.2883 37.677 15.6351 38.1246 14.4369 37.9257Z" fill="#FDF8F4" stroke="#FDF8F4" stroke-width="2" stroke-linecap="round" stroke-linejoin="round"/>
<path d="M25.5519 23.8981C15.9775 22.1579 13.729 13.0217 13.8015 8.67113C12.641 8.23607 10.4925 9.88246 8.57911 12.3691C6.40311 15.197 5.09751 16.7197 5.53271 22.3754C5.58278 23.026 6.49056 24.5262 6.18551 26.5084C5.75031 29.3363 5.31511 31.5115 5.75031 34.1219C5.24258 32.5267 3.83543 28.9447 4.00951 27.3785C4.22711 25.4208 3.79191 22.5929 2.70391 18.2424C1.83351 14.7619 4.66239 10.4114 5.96798 8.67113C7.27353 7.58349 7.92639 5.84321 11.6256 3.66793C14.5849 1.92771 17.7184 1.49246 20.9824 1.92732C22.9407 1.49297 25.5519 2.19458 27.2928 2.7969C38.608 6.71253 38.8255 23.463 37.3023 23.2455C35.7791 23.028 35.1263 25.2032 34.0383 27.3785C32.9503 29.5538 30.3391 28.9012 30.9919 28.9012C31.5141 28.9012 31.6447 26.4359 31.6447 25.2032L25.5519 23.8981Z" fill="#FDF8F4" stroke="#FDF8F4" stroke-width="2"/>
<path d="M11.9763 24.8784C12.223 25.6452 12.6518 27.5238 12.0598 28.9041C11.32 30.6294 10.5801 31.7795 11.32 32.9297C11.8193 33.7059 13.6013 33.1853 14.0946 33.1214" stroke="#FDF8F4" stroke-width="2" stroke-linecap="round"/>
<path d="M2.18425 28.3994C2.18425 29.7038 2.18425 31.0082 2.18425 32.3125C2.18425 32.7645 2.07008 33.2071 2.02753 33.6569C1.88476 35.1662 1.96549 36.6528 2.18425 38.1455C2.26061 38.6665 2.38124 39.1163 2.55891 39.6099C2.62786 39.8014 2.62503 39.9732 2.62503 40.178C2.62503 40.6795 2.6395 41.1773 2.69115 41.6766C2.85676 43.2775 3.51556 44.7 4.30243 46.077C4.39795 46.2442 4.4978 46.4528 4.65016 46.5766C4.81498 46.7105 4.82437 47.0345 4.89259 47.2255C5.10489 47.82 5.39745 48.3962 5.69088 48.9543C6.03127 49.6018 6.59055 50.0528 7.18463 50.4628C8.54829 51.4039 10.0431 52.0905 11.5067 52.8528C12.1239 53.1742 12.7388 53.3531 13.3947 53.5678C13.7679 53.6899 14.1375 53.8326 14.5015 53.9792C14.732 54.072 14.8533 54.2351 15.055 54.3514C15.9091 54.8442 16.9054 55.2255 17.8319 55.5611C18.5814 55.8326 19.4161 55.9039 20.2121 55.9039" stroke="#FDF8F4" stroke-width="2" stroke-linecap="round"/>
<path d="M35.8033 7.35254C36.3121 7.8614 36.7262 8.40696 37.1807 8.97653C38.1725 10.2193 39.3705 11.4346 40.0886 12.8707C40.3542 13.402 40.6094 13.9446 40.8538 14.4862C41.1928 15.2375 41.23 15.7044 41.2364 16.5353C41.2484 18.0776 41.619 19.5857 41.619 21.1267C41.619 22.0102 41.6031 22.8902 41.6786 23.771C41.7426 24.5183 41.8486 25.2115 41.8486 25.9647C41.8486 28.1834 41.9251 30.396 41.9251 32.6137C41.9251 33.3776 42.0429 34.2618 41.8784 35.0115C41.6353 36.1188 41.1031 37.1664 40.705 38.2212C40.0578 39.9363 40.0466 41.7336 39.706 43.5098C39.5061 44.5519 39.1988 45.4886 38.8515 46.4942C38.456 47.6388 38.0783 48.7959 37.6398 49.925C37.241 50.9521 36.6708 51.7439 35.9478 52.5735C35.6278 52.9408 35.2392 53.4871 34.7745 53.7086C34.5156 53.832 34.143 53.8423 33.8647 53.8957C33.0018 54.0612 32.1733 54.3195 31.3224 54.5291C30.5096 54.7294 29.7313 55.0496 28.9162 55.2391C27.9546 55.4626 26.959 55.3671 26.0083 55.6387" stroke="#FDF8F4" stroke-width="2" stroke-linecap="round"/>
</svg>
