<svg width="52" height="67" viewBox="0 0 52 67" fill="none" xmlns="http://www.w3.org/2000/svg">
<path d="M26.1554 2.5C38.8411 2.5 48.8108 11.5891 48.8108 22.4362V44.5638C48.8108 55.4109 38.841 64.5 26.1554 64.5C13.4698 64.5 3.5 55.4109 3.5 44.5638V22.4362C3.5 11.5891 13.4698 2.5 26.1554 2.5Z" fill="#FDF8F4" stroke="#3B5C60" stroke-width="3"/>
<path d="M41.059 28.5549C40.3204 31.1384 38.4431 32.6123 37.5968 33.0263L37.1351 37.7462C37.2121 37.9118 37.8276 38.3424 39.6741 38.7399C41.9822 39.2367 43.8288 33.5233 44.0596 32.778C44.2904 32.0328 44.0596 28.5549 44.0596 27.5613C44.0596 26.5677 41.9822 25.3256 41.059 28.5549Z" fill="#FDF8F4" stroke="#3B5C60" stroke-width="3"/>
<path d="M13.8736 51.2616C15.6492 53.2572 20.2033 52.9246 22.2584 52.5088C32.1227 51.5112 36.0685 42.4473 36.8083 38.0401C37.0549 35.8782 37.4002 30.3071 36.8083 25.318C36.0685 19.0815 25.4643 8.85378 16.0931 9.85161C6.72194 10.8494 6.96855 25.318 7.46177 26.0663C7.95499 26.8147 8.44822 30.0577 7.70839 34.049C6.96856 38.0403 8.44822 42.5305 8.94144 43.2789C9.43466 44.0273 11.6541 48.767 13.8736 51.2616Z" fill="#FDF8F4" stroke="#3B5C60" stroke-width="3"/>
<path d="M47.6757 36.9561C47.6757 35.2185 45.668 32.4879 44.6641 31.7432C43.1583 36.9561 41.9035 37.2044 40.6486 37.9491C39.1956 38.8115 37.9018 37.9583 37.1472 37.4606L37.1351 37.4526L37.888 43.1621C47.1737 43.1621 47.6757 39.204 47.6757 36.9561Z" fill="#3B5C60" stroke="#3B5C60" stroke-width="3"/>
<path d="M19.5676 52.9746L23.156 63.3592C28.4191 68.3043 45.4766 60.131 42.8446 57.2164C39.4954 53.5076 37.43 43.4141 37.0313 37.8921C36.9516 38.469 36.8696 41.0836 34.1606 45.0624C29.6152 51.7383 23.794 52.3152 19.5676 52.9746Z" fill="#FDF8F4" stroke="#3B5C60" stroke-width="3"/>
<path d="M17.2537 43.071C16.654 43.0656 14.3445 42.3782 13.2647 42.0352C13.7584 42.7061 15.1947 44.1519 16.9902 44.568C18.7858 44.9842 21.2494 43.3287 21.9991 42.3291C20.4997 43.0788 17.8535 43.0765 17.2537 43.071Z" fill="#3B5C60" stroke="#3B5C60" stroke-width="3" stroke-linecap="round" stroke-linejoin="round"/>
<path d="M12.9108 28.7357C13.0696 29.2806 12.0146 29.2058 11.4672 29.1003C11.2687 28.4192 11.1081 27.0704 12.0537 27.1241C13.2356 27.1912 12.7123 28.0546 12.9108 28.7357Z" fill="#3B5C60"/>
<path d="M11.8641 28.7357C11.7053 29.2806 12.7603 29.2058 13.3077 29.1003C13.5062 28.4192 13.6668 27.0704 12.7212 27.1241C11.5393 27.1912 12.0626 28.0546 11.8641 28.7357Z" fill="#3B5C60"/>
<path d="M24.5056 29.0907C23.8221 29.2677 23.9365 28.0655 24.0315 27.5494C24.8859 27.3282 26.5946 27.107 26.5946 27.9918C26.5946 29.0977 25.3599 28.8695 24.5056 29.0907Z" fill="#3B5C60"/>
<path d="M11.6621 27.3516C9.90538 27.3519 8.96844 28.3329 8.14862 29.1916C8.85132 29.5596 10.6176 29.8066 11.3108 29.9276C13.4189 30.2956 15.1756 28.8236 15.1756 28.8236C15.1756 28.8236 13.7702 27.3512 11.6621 27.3516Z" stroke="#3B5C60" stroke-width="3" stroke-linecap="round" stroke-linejoin="round"/>
<path d="M24.3987 27.3516C22.8615 27.3519 22.0417 28.3329 21.3243 29.1916C21.9392 29.5596 23.4847 29.8066 24.0912 29.9276C25.9358 30.2956 27.473 28.8236 27.473 28.8236C27.473 28.8236 26.2433 27.3512 24.3987 27.3516Z" stroke="#3B5C60" stroke-width="3" stroke-linecap="round" stroke-linejoin="round"/>
<path d="M19.5676 24.6258C23.5369 22.7263 27.6629 24.6268 29.2297 26.473C27.1406 25.4184 25.626 25.3654 24.7904 25.1545C23.9547 24.9435 20.9603 25.4177 19.5676 25.6814V24.6258Z" fill="#3B5C60" stroke="#3B5C60" stroke-width="3" stroke-linecap="round" stroke-linejoin="round"/>
<path d="M14.2973 24.0831V25.097C13.6352 24.8434 12.2063 23.8294 11.3181 23.8294C10.3251 23.8294 9.87017 23.7255 8.83549 24.5898C6.10458 26.8712 7.75968 24.5898 7.84243 24.3364C8.00794 23.9984 8.68653 23.4726 10.0768 23.067C11.4671 22.6615 13.4697 23.4916 14.2973 24.0831Z" fill="#3B5C60" stroke="#3B5C60" stroke-width="3" stroke-linecap="round" stroke-linejoin="round"/>
<path d="M17.3228 43.1081C15.9565 42.8813 14.1509 42.2575 13.4189 41.6904C14.1509 41.4068 13.8581 41.5203 14.6389 40.8398C15.4197 40.1593 16.4282 40.7454 16.8349 41.1235C17.5668 40.2728 18.9661 40.9442 19.2748 41.1235C19.7628 41.4068 20.9828 41.9739 22.2027 41.9739C21.7147 42.8246 18.6892 43.3349 17.3228 43.1081Z" fill="#3B5C60" stroke="#3B5C60" stroke-width="3" stroke-linecap="round" stroke-linejoin="round"/>
<path d="M29.9978 27.1116C19.0796 25.1271 16.5155 14.7087 16.5982 9.74755C15.2748 9.25143 12.8249 11.1289 10.6429 13.9645C8.16147 17.1893 6.67263 18.9257 7.16891 25.3752C7.22601 26.1172 8.2612 27.8279 7.91333 30.0883C7.41705 33.3131 6.92077 35.7936 7.41705 38.7703C6.83806 36.9512 5.23342 32.8666 5.43193 31.0805C5.68007 28.848 5.18379 25.6233 3.94308 20.6621C2.95052 16.6932 6.17644 11.732 7.66528 9.74755C9.15406 8.50726 9.89855 6.52272 14.1169 4.04214C17.4916 2.05768 21.0649 1.56134 24.787 2.05723C27.0201 1.56192 29.9978 2.36201 31.983 3.04886C44.8863 7.51406 45.1344 26.6155 43.3974 26.3674C41.6604 26.1194 40.916 28.6 39.6753 31.0805C38.4346 33.5611 35.4569 32.8169 36.2013 32.8169C36.7969 32.8169 36.9457 30.0056 36.9457 28.6L29.9978 27.1116Z" fill="#3B5C60" stroke="#3B5C60" stroke-width="3"/>
<path d="M14.5169 28.2295C14.7982 29.1039 15.2872 31.2462 14.6122 32.8202C13.7684 34.7876 12.9247 36.0992 13.7685 37.4108C14.3379 38.2959 16.37 37.7023 16.9325 37.6294" stroke="#3B5C60" stroke-width="3" stroke-linecap="round"/>
<path d="M3.3505 32.2451C3.3505 33.7326 3.3505 35.22 3.3505 36.7075C3.3505 37.2229 3.2203 37.7275 3.17178 38.2405C3.00897 39.9616 3.10103 41.6568 3.3505 43.3591C3.43757 43.9533 3.57513 44.4662 3.77774 45.029C3.85636 45.2473 3.85314 45.4433 3.85314 45.6768C3.85314 46.2487 3.86963 46.8164 3.92853 47.3858C4.11739 49.2114 4.86866 50.8335 5.76597 52.4038C5.87489 52.5944 5.98876 52.8323 6.16249 52.9735C6.35045 53.1262 6.36115 53.4956 6.43895 53.7135C6.68105 54.3914 7.01466 55.0485 7.34928 55.6849C7.73745 56.4232 8.37522 56.9375 9.05268 57.4051C10.6077 58.4783 12.3123 59.2612 13.9814 60.1305C14.6852 60.4971 15.3864 60.7011 16.1343 60.9459C16.5599 61.0852 16.9814 61.2478 17.3965 61.415C17.6593 61.5209 17.7976 61.7068 18.0276 61.8395C19.0016 62.4014 20.1377 62.8363 21.1943 63.219C22.049 63.5285 23.0008 63.6099 23.9085 63.6099" stroke="#3B5C60" stroke-width="5" stroke-linecap="round"/>
<path d="M41.688 8.24414C42.2682 8.82442 42.7404 9.44655 43.2587 10.0961C44.3897 11.5132 45.7558 12.8991 46.5747 14.5368C46.8777 15.1427 47.1687 15.7614 47.4473 16.379C47.8339 17.2358 47.8763 17.7681 47.8837 18.7157C47.8973 20.4744 48.32 22.1943 48.32 23.9515C48.32 24.959 48.3018 25.9626 48.3879 26.967C48.4609 27.8191 48.5818 28.6097 48.5818 29.4685C48.5818 31.9986 48.669 34.5217 48.669 37.0508C48.669 37.9218 48.8034 38.9301 48.6157 39.785C48.3385 41.0478 47.7316 42.2424 47.2777 43.4452C46.5396 45.4011 46.5268 47.4506 46.1384 49.4761C45.9105 50.6645 45.5601 51.7327 45.164 52.8794C44.7131 54.1846 44.2822 55.5041 43.7823 56.7917C43.3275 57.9629 42.6773 58.8658 41.8528 59.812C41.4878 60.2308 41.0447 60.8538 40.5148 61.1064C40.2196 61.2471 39.7947 61.2588 39.4773 61.3197C38.4933 61.5084 37.5486 61.8029 36.5782 62.042C35.6513 62.2704 34.7638 62.6356 33.8343 62.8516C32.7377 63.1065 31.6024 62.9976 30.5182 63.3073" stroke="#3B5C60" stroke-width="5" stroke-linecap="round"/>
</svg>
