<svg width="111" height="157" viewBox="0 0 111 157" fill="none" xmlns="http://www.w3.org/2000/svg">
<path d="M77.5 91.5957C77.5 104.082 66.0328 114.5 51.5 114.5C36.9672 114.5 25.5 104.082 25.5 91.5957V66.4043C25.5 53.918 36.9672 43.5 51.5 43.5C66.0328 43.5 77.5 53.918 77.5 66.4043V91.5957Z" fill="#FDF8F4" stroke="#3B5C60" stroke-width="3"/>
<path d="M12.144 135.965C15.2981 134.923 16.2532 131.261 16.9077 128.259C16.9162 130.949 16.8119 133.698 17.2472 136.38C17.6396 139.048 21.2153 139.222 22.6163 137.303C26.4999 131.963 29.0196 125.254 31.0937 119.066C32.1026 115.986 27.289 113.587 25.8371 116.575C24.5356 119.233 23.4917 121.971 22.362 124.683C22.2088 123.362 20.6509 117.784 18.605 115.731C16.7766 113.887 15.7564 113.38 14.9782 115.117C13.6016 118.317 12.8665 121.576 12.0188 124.894C11.5787 126.454 11.2112 128.083 10.5135 129.562C9.88554 130.969 9.14745 131.823 8.99199 133.377C8.83653 134.932 10.6166 136.478 12.144 135.965Z" fill="#3B5C60"/>
<path d="M29.6232 41.2571C32.0834 42.6345 34.3351 39.3963 32.1025 37.5909C30.0126 35.8614 27.9755 34.0085 26.1025 31.9778C24.7787 30.5042 23.5552 29.1029 21.6602 28.3477C20.7972 27.9772 19.5602 28.5119 19.3323 29.4507C18.9721 30.6977 19.0453 31.8534 19.1608 33.0127C17.9035 32.2684 16.6091 31.7126 15.0396 31.3892C13.8278 31.1171 12.5778 32.5662 12.8818 33.7625C13.655 36.7226 15.7746 38.8592 17.3443 41.4604C18.5797 43.4801 19.9758 44.8533 21.4687 46.3411C23.5883 48.4777 24.6647 45.8007 24.0241 44.8102C22.8168 42.9632 21.495 41.213 20.6417 39.4596C20.4235 39.0155 20.1825 38.5908 19.9643 38.1467C20.3622 38.4781 20.7831 38.7902 21.2039 39.1023C22.447 40.0157 23.5769 38.9823 23.6238 37.4109C23.6541 36.7961 23.5383 36.1478 23.3802 35.4959C23.5509 35.7444 23.7251 35.9506 23.9417 36.1604C25.6369 38.0271 27.3867 40.0048 29.6232 41.2571Z" fill="#3B5C60"/>
<path d="M43.875 149.01C46.755 148.47 48.33 145.725 49.365 143.205C51.66 137.58 52.605 130.965 51.3 123.405C50.94 121.29 48.69 120.3 46.26 120.12C41.535 119.895 39.195 126.195 38.07 129.795C36.54 134.475 35.415 141.405 37.98 145.95C39.15 148.02 41.4 149.415 43.875 149.01ZM42.975 142.485L42.705 141.765C41.895 138.39 42.525 134.52 43.155 131.19C43.425 129.885 43.92 126.915 45.045 125.07C46.215 129.525 45.99 133.71 44.82 138.21C44.37 139.74 43.605 141.045 42.975 142.485Z" fill="#3B5C60"/>
<path d="M42.4749 36.3509C44.1914 35.4184 44.6283 33.3543 44.7687 31.5436C45.0725 27.5049 44.3171 23.1146 41.9406 18.5857C41.279 17.3177 39.6488 17.1505 38.0702 17.534C35.0265 18.3591 34.8325 22.8353 34.8561 25.3496C34.8441 28.6321 35.5499 33.2591 38.1082 35.6171C39.2744 36.6907 40.9876 37.1148 42.4749 36.3509ZM40.5673 32.3957L40.2486 31.9942C39.0434 30.019 38.6503 27.4347 38.3679 25.1931C38.2719 24.3098 37.9776 22.3242 38.3134 20.9233C39.9682 23.51 40.6827 26.2111 40.8622 29.3056C40.8901 30.3685 40.672 31.3531 40.5673 32.3957Z" fill="#3B5C60"/>
<path d="M71.2269 147.319C73.9648 146.275 75.026 143.294 75.5959 140.63C76.8531 134.686 76.6055 128.009 73.9757 120.802C73.245 118.784 70.8547 118.211 68.4315 118.466C63.7419 119.086 62.5606 125.702 62.0944 129.444C61.4218 134.322 61.5483 141.342 64.8814 145.357C66.4011 147.186 68.8635 148.158 71.2269 147.319ZM69.1798 141.059L68.786 140.398C67.3882 137.221 67.3193 133.301 67.3465 129.912C67.3799 128.58 67.3383 125.569 68.117 123.553C70.0613 127.729 70.5848 131.887 70.2344 136.524C70.064 138.109 69.5435 139.53 69.1798 141.059Z" fill="#3B5C60"/>
<path d="M67.2556 39.8472C69.4228 41.6002 72.2278 43.1058 75.1039 43.1502C76.7297 43.18 77.2016 41.0496 75.92 40.2119C74.4479 39.225 72.7754 38.7477 71.18 37.9667C71.586 37.4056 71.9921 36.8445 72.4239 36.2989C72.9283 36.5661 73.3915 36.8436 73.9473 36.9667C75.0176 37.2233 76.1794 35.751 75.1807 34.9079C74.8512 34.6406 74.491 34.4247 74.1152 34.2346C75.7244 32.3659 77.385 30.5281 78.9169 28.6131C79.7711 28.8801 80.6357 29.1882 81.4437 29.5324C82.4215 29.9433 83.3685 30.4058 84.4539 30.1118C85.3335 29.8694 85.5438 28.8762 85.0031 28.2026C84.3543 27.3593 83.1913 27.0822 82.2187 26.7793C81.7196 26.6202 81.2204 26.461 80.7058 26.3276C80.7675 26.2246 80.8549 26.1371 80.9166 26.0342C81.6876 24.9223 80.2357 23.493 79.1094 24.1472C76.5688 25.7027 74.9139 28.3483 72.9088 30.4693C70.77 32.7551 68.7136 35.0203 67.0072 37.6351C66.6114 38.2373 66.6482 39.3434 67.2556 39.8472Z" fill="#3B5C60"/>
<path d="M89.209 136.312C90.8856 139.602 95.8241 137.309 94.3925 133.905C93.5075 131.785 92.5817 129.685 91.656 127.585C92.414 127.828 93.172 128.071 93.8892 128.334C96.1414 129.124 98.1021 130.247 100.528 129.915C102.611 129.593 103.224 127.174 102.061 125.631C100.629 123.616 98.2649 123.226 96.0287 122.577L92.0754 121.436C93.8317 118.487 94.9306 115.297 92.2833 112.161C89.5412 108.82 85.2074 108.996 82.9453 112.031C81.9147 112.163 80.9206 113.12 81.1277 114.314C81.8874 117.98 83.4954 121.55 84.7828 125.07C86.1431 128.855 87.4406 132.717 89.209 136.312ZM87.9237 118.799C87.2823 117.311 86.6 115.842 85.7544 114.448C87.4307 113.571 89.6042 114.298 89.0912 116.719C88.9295 117.439 88.466 118.151 87.9237 118.799Z" fill="#3B5C60"/>
<path d="M51.8958 32.2885C51.3628 34.6918 54.8756 35.6068 55.5828 33.2489C56.0265 31.7835 56.4412 30.3104 56.8559 28.8374C57.1426 29.2841 57.4292 29.7308 57.6869 30.1699C58.5103 31.5314 59.0421 32.941 60.4307 33.7987C61.6388 34.5164 62.9801 33.5327 63.0364 32.2454C63.1545 30.6021 62.104 29.3984 61.2289 28.1164L59.6794 25.8527C61.8336 25.0808 63.7515 23.9063 63.7203 21.1701C63.7268 18.2887 61.4228 16.5415 58.972 17.1432C58.3862 16.7736 57.4687 16.8446 57.0689 17.5465C55.9048 19.7543 55.2178 22.2725 54.3869 24.6292C53.4817 27.1524 52.5108 29.6896 51.8958 32.2885ZM58.6623 22.7357C58.9636 21.6981 59.2358 20.653 59.3919 19.5776C60.6263 19.8372 61.4358 21.1331 60.1451 22.1609C59.7564 22.4627 59.2163 22.632 58.6623 22.7357Z" fill="#3B5C60"/>
<path d="M68.4672 73.37C67.6263 76.3112 65.4891 77.9892 64.5255 78.4606L64 83.834C64.0876 84.0225 64.7883 84.5127 66.8905 84.9652C69.5182 85.5308 71.6204 79.0263 71.8832 78.1779C72.146 77.3294 71.8832 73.37 71.8832 72.2388C71.8832 71.1076 69.5182 69.6936 68.4672 73.37Z" fill="#FDF8F4" stroke="#3B5C60" stroke-width="3"/>
<path d="M37.5177 99.221C39.5391 101.493 44.7237 101.114 47.0634 100.641C58.2936 99.5051 62.7857 89.1863 63.628 84.1688C63.9087 81.7076 64.3018 75.3651 63.628 69.6852C62.7857 62.5852 50.7132 50.9413 40.0445 52.0773C29.3758 53.2133 29.6565 69.6852 30.218 70.5372C30.7795 71.3892 31.3411 75.0811 30.4988 79.6251C29.6565 84.1691 31.3411 89.281 31.9026 90.133C32.4641 90.985 34.9909 96.381 37.5177 99.221Z" fill="#FDF8F4" stroke="#3B5C60" stroke-width="3"/>
<path d="M76 82.9348C76 80.9565 73.7143 77.8478 72.5714 77C70.8571 82.9348 69.4286 83.2174 68 84.0652C66.3457 85.047 64.8729 84.0757 64.0137 83.509L64 83.5L64.8571 90C75.4286 90 76 85.4939 76 82.9348Z" fill="#3B5C60" stroke="#3B5C60" stroke-width="3"/>
<path d="M44 101.171L48.0853 112.993C54.0771 118.623 73.4964 109.318 70.5 106C66.6871 101.778 64.3357 90.2866 63.8818 84C63.791 84.6568 63.6977 87.6334 60.6136 92.1632C55.4388 99.7634 48.8116 100.42 44 101.171Z" fill="#FDF8F4" stroke="#3B5C60" stroke-width="3"/>
<path d="M41.3658 89.8961C40.6831 89.8899 38.0538 89.1073 36.8245 88.7168C37.3865 89.4806 39.0217 91.1266 41.0658 91.6004C43.11 92.0742 45.9147 90.1894 46.7682 89.0514C45.0612 89.9049 42.0486 89.9023 41.3658 89.8961Z" fill="#3B5C60" stroke="#3B5C60" stroke-width="3" stroke-linecap="round" stroke-linejoin="round"/>
<path d="M36.4215 73.5762C36.6022 74.1965 35.4012 74.1114 34.778 73.9913C34.5521 73.2159 34.3692 71.6803 35.4457 71.7414C36.7912 71.8178 36.1955 72.8008 36.4215 73.5762Z" fill="#3B5C60"/>
<path d="M35.2299 73.5762C35.0491 74.1965 36.2502 74.1114 36.8733 73.9913C37.0993 73.2159 37.2821 71.6803 36.2057 71.7414C34.8601 71.8178 35.4559 72.8008 35.2299 73.5762Z" fill="#3B5C60"/>
<path d="M49.6217 73.9799C48.8436 74.1814 48.9739 72.8128 49.082 72.2252C50.0546 71.9734 52 71.7216 52 72.7289C52 73.9879 50.5944 73.7281 49.6217 73.9799Z" fill="#3B5C60"/>
<path d="M35 72C33 72.0004 31.9333 73.1172 31 74.0948C31.8 74.5138 33.8109 74.795 34.6 74.9328C37 75.3517 39 73.6759 39 73.6759C39 73.6759 37.4 71.9995 35 72Z" stroke="#3B5C60" stroke-width="3" stroke-linecap="round" stroke-linejoin="round"/>
<path d="M49.5 72C47.75 72.0004 46.8167 73.1172 46 74.0948C46.7 74.5138 48.4595 74.795 49.15 74.9328C51.25 75.3517 53 73.6759 53 73.6759C53 73.6759 51.6 71.9995 49.5 72Z" stroke="#3B5C60" stroke-width="3" stroke-linecap="round" stroke-linejoin="round"/>
<path d="M44 68.8971C48.5189 66.7345 53.2162 68.8982 55 71C52.6216 69.7993 50.8973 69.7391 49.9459 69.4989C48.9946 69.2587 45.5856 69.7985 44 70.0988V68.8971Z" fill="#3B5C60" stroke="#3B5C60" stroke-width="3" stroke-linecap="round" stroke-linejoin="round"/>
<path d="M38 68.2792V69.4335C37.2463 69.1448 35.6195 67.9904 34.6083 67.9904C33.4778 67.9904 32.9599 67.8721 31.7819 68.8561C28.6729 71.4533 30.5572 68.856 30.6514 68.5675C30.8398 68.1828 31.6124 67.5842 33.1951 67.1224C34.7779 66.6607 37.0579 67.6058 38 68.2792Z" fill="#3B5C60" stroke="#3B5C60" stroke-width="3" stroke-linecap="round" stroke-linejoin="round"/>
<path d="M41.4444 89.9386C39.8889 89.6804 37.8333 88.9702 37 88.3246C37.8333 88.0018 37.5 88.131 38.3889 87.3563C39.2778 86.5815 40.4259 87.2488 40.8889 87.6792C41.7222 86.7108 43.3153 87.4751 43.6667 87.6792C44.2222 88.0018 45.6111 88.6474 47 88.6474C46.4444 89.6158 43 90.1969 41.4444 89.9386Z" fill="#3B5C60" stroke="#3B5C60" stroke-width="3" stroke-linecap="round" stroke-linejoin="round"/>
<path d="M55.8744 71.727C43.4445 69.4678 40.5253 57.6068 40.6195 51.9587C39.1128 51.3939 36.3237 53.5313 33.8396 56.7596C31.0146 60.4308 29.3196 62.4077 29.8846 69.7502C29.9496 70.5949 31.1281 72.5425 30.7321 75.1159C30.1671 78.7871 29.6021 81.6111 30.1671 85C29.5079 82.929 27.6811 78.2788 27.9071 76.2455C28.1896 73.7038 27.6246 70.0326 26.2121 64.3845C25.0821 59.866 28.7547 54.2179 30.4497 51.9587C32.1446 50.5467 32.9922 48.2874 37.7946 45.4633C41.6366 43.2041 45.7046 42.639 49.9421 43.2036C52.4844 42.6397 55.8744 43.5506 58.1345 44.3325C72.8244 49.416 73.1068 71.1622 71.1293 70.8798C69.1518 70.5974 68.3043 73.4214 66.8918 76.2455C65.4794 79.0695 62.0894 78.2223 62.9369 78.2223C63.6149 78.2223 63.7844 75.0217 63.7844 73.4214L55.8744 71.727Z" fill="#3B5C60" stroke="#3B5C60" stroke-width="3"/>
<path d="M38.25 73C38.5702 73.9955 39.1269 76.4344 38.3584 78.2263C37.3979 80.4661 36.4373 81.9594 37.3979 83.4526C38.0461 84.4602 40.3596 83.7844 41 83.7015" stroke="#3B5C60" stroke-width="3" stroke-linecap="round"/>
<path d="M25.5375 77.5713C25.5375 79.2647 25.5375 80.9581 25.5375 82.6515C25.5375 83.2383 25.3892 83.8128 25.334 84.3968C25.1487 86.3562 25.2535 88.2862 25.5375 90.2241C25.6366 90.9005 25.7932 91.4845 26.0239 92.1252C26.1134 92.3738 26.1097 92.597 26.1097 92.8627C26.1097 93.5138 26.1285 94.1602 26.1955 94.8084C26.4105 96.8867 27.2658 98.7335 28.2874 100.521C28.4114 100.738 28.541 101.009 28.7388 101.17C28.9528 101.344 28.965 101.764 29.0535 102.012C29.3292 102.784 29.709 103.532 30.0899 104.257C30.5318 105.097 31.2579 105.683 32.0292 106.215C33.7995 107.437 35.7401 108.328 37.6403 109.318C38.4415 109.735 39.2398 109.967 40.0914 110.246C40.5759 110.405 41.0557 110.59 41.5283 110.78C41.8275 110.901 41.985 111.112 42.2468 111.263C43.3557 111.903 44.6491 112.398 45.8519 112.834C46.8249 113.186 47.9086 113.279 48.942 113.279" stroke="#3B5C60" stroke-width="5" stroke-linecap="round"/>
<path d="M69.1832 50.2471C69.8438 50.9077 70.3813 51.616 70.9714 52.3554C72.259 53.9688 73.8143 55.5465 74.7466 57.411C75.0915 58.1008 75.4228 58.8052 75.74 59.5083C76.1802 60.4837 76.2284 61.0898 76.2368 62.1686C76.2523 64.1708 76.7335 66.1288 76.7335 68.1294C76.7335 69.2763 76.7128 70.4188 76.8108 71.5623C76.8939 72.5324 77.0315 73.4324 77.0315 74.4102C77.0315 77.2906 77.1309 80.1631 77.1309 83.0423C77.1309 84.034 77.2838 85.1819 77.0702 86.1551C76.7546 87.5928 76.0636 88.9527 75.5469 90.3221C74.7066 92.5488 74.6921 94.8822 74.2499 97.1881C73.9904 98.541 73.5915 99.7571 73.1405 101.063C72.6272 102.549 72.1367 104.051 71.5675 105.517C71.0497 106.85 70.3095 107.878 69.3709 108.955C68.9554 109.432 68.4509 110.141 67.8476 110.429C67.5115 110.589 67.0278 110.602 66.6664 110.672C65.5462 110.886 64.4707 111.222 63.3659 111.494C62.3107 111.754 61.3003 112.17 60.2421 112.416C58.9936 112.706 57.7012 112.582 56.4669 112.934" stroke="#3B5C60" stroke-width="5" stroke-linecap="round"/>
</svg>
