<svg width="433" height="46" viewBox="0 0 433 46" fill="none" xmlns="http://www.w3.org/2000/svg">
<rect x="6" y="7" width="423" height="35" fill="#3B5C60"/>
<path d="M5.12231 39.356C19.5343 39.356 33.9465 39.387 48.1441 40.4505C55.7337 41.0191 58.869 39.0572 66.4593 39.6287C69.469 39.8553 98.9853 40.4507 77.0928 38.8246C93.3558 41.1122 85.1819 36.345 85.1819 39.4158C87.2144 39.7762 89.3831 39.6287 91.4793 39.6287C96.9315 39.6287 101.665 39.356 107.117 39.356C111.847 39.356 115.532 39.3252 120.252 39.356C122.527 39.3709 126.507 35.8144 126.507 39.3565C133.516 39.7837 142.63 39.2448 149.651 39.6291C166.503 40.5517 181.553 40.4507 198.44 40.4507C218.606 40.4507 237.478 41.6396 257.538 39.6296C269.369 38.4442 283.187 40.9978 295.177 40.9978C302.465 40.9978 309.733 41.5348 317.041 41.5451C334.432 41.5696 351.783 40.9978 369.166 40.9978C377.923 40.9978 386.552 41.1187 395.249 41.9251C399.207 42.2921 403.094 41.2195 406.95 40.6634C412.488 39.8646 417.963 39.6296 423.577 39.6296C426.347 39.6296 426.736 39.7302 426.736 37.6838C426.736 32.4091 428.233 27.2948 428.233 22.0561C428.233 19.8333 428.045 17.6022 428.586 15.4281C429.001 13.7594 429.034 12.1106 428.981 10.4114C428.964 9.86042 428.714 7.26719 428.149 6.85415C427.464 6.35283 423.738 6.79334 422.912 6.79334C416.494 6.79334 415.409 10.688 409.233 9.46889C405.458 8.72354 397.639 10.7155 395.249 8.8C389.896 8.3254 389.562 8.06904 384.213 8.31354C378.318 8.58306 365.915 9.97182 360.021 9.46889C356.863 9.19939 354.138 8.8 350.939 8.8C338.112 8.8 325.142 8.31302 312.406 9.62091C306.515 10.2259 301.022 9.46889 295.177 10.4114C282.832 8.76965 270.077 8.12636 257.538 8.31354C250.717 8.41536 244.04 9.96339 237.253 9.28646C223.658 7.9305 208.448 8.31354 196.185 7.12778C190.101 7.58551 184.504 7.2494 178.424 7.2494C165.795 7.2494 150.396 7.10428 137.766 7.12778C130.009 7.14222 122.383 5.91163 114.623 5.91163C100.081 5.91163 87.1221 4.05283 72.5855 4.36102C68.6892 4.44363 64.9176 5.03733 61.0299 4.75628C52.1416 4.1137 43.0691 3.64241 34.1568 4.36102C28.7833 4.7943 23.4887 5.36094 18.0912 5.63799C14.9926 5.79704 11.6973 5.40308 8.6555 5.91163C7.02399 6.1844 6.02837 5.98798 5.68346 7.2494C5.17473 9.10997 5.12231 10.9839 5.12231 12.8741C5.12231 15.7616 4.69411 18.5351 4.3741 21.4024C4.06169 24.2018 4 26.9548 4 29.7635C4 31.2398 4.85777 32.4721 5.10152 33.8985C5.2669 34.8662 5.12231 35.9165 5.12231 36.8933" stroke="#3B5C60" stroke-width="7" stroke-linecap="round"/>
</svg>
