<svg width="47" height="58" viewBox="0 0 47 58" fill="none" xmlns="http://www.w3.org/2000/svg">
<path d="M29.3478 21.3709C29.221 22.6675 28.5726 23.8595 27.5452 24.6847C26.5179 25.5099 25.1957 25.9006 23.8695 25.7709C22.5434 25.6412 21.3219 25.0018 20.4738 23.9932C19.6258 22.9847 19.2206 21.6896 19.3474 20.393C19.4742 19.0964 20.1226 17.9044 21.1499 17.0792C22.1773 16.254 23.4995 15.8633 24.8257 15.993C26.1518 16.1227 27.3733 16.7621 28.2213 17.7707C29.0694 18.7792 29.4746 20.0743 29.3478 21.3709ZM13.3113 30.4968L13.2316 31.3116C13.0626 33.0404 13.6029 34.7672 14.7336 36.1119C15.8644 37.4566 17.493 38.3092 19.2612 38.4821L25.9282 39.1341C27.6963 39.307 29.4593 38.786 30.8291 37.6858C32.1989 36.5856 33.0635 34.9962 33.2325 33.2674L33.3122 32.4526C33.3756 31.8043 33.173 31.1567 32.749 30.6525C32.3249 30.1482 31.7142 29.8285 31.0511 29.7636L16.0505 28.2968C15.3874 28.2319 14.7263 28.4273 14.2126 28.8399C13.6989 29.2525 13.3747 29.8485 13.3113 30.4968ZM5.46219 7.5186L1.63764 46.6302C1.46859 48.359 2.00887 50.0858 3.13962 51.4305C4.27038 52.7752 5.89899 53.6278 7.66718 53.8007L39.3353 56.8974C39.7773 56.9406 40.218 56.8104 40.5605 56.5353C40.903 56.2603 41.1191 55.863 41.1614 55.4307C41.2036 54.9985 41.0686 54.5669 40.7859 54.2307C40.5032 53.8945 40.096 53.6813 39.654 53.6381L7.98589 50.5414C7.1018 50.455 6.28749 50.0287 5.72211 49.3563C5.15674 48.684 4.8866 47.8206 4.97112 46.9562L38.3059 50.2158C39.19 50.3023 40.0715 50.0418 40.7564 49.4917C41.4413 48.9416 41.8736 48.1469 41.9581 47.2825L45.464 11.4302C45.633 9.70135 45.0927 7.97463 43.962 6.6299C42.8312 5.28516 41.2026 4.43256 39.4344 4.25966L12.7666 1.65193C10.9984 1.47903 9.23546 1.99999 7.86562 3.1002C6.49578 4.20041 5.63124 5.78976 5.46219 7.5186ZM39.1157 7.51896C39.9998 7.60541 40.8141 8.03171 41.3795 8.70408C41.9449 9.37645 42.215 10.2398 42.1305 11.1042L38.6247 46.9565L5.28984 43.6969L8.79567 7.84457C8.8802 6.98015 9.31247 6.18547 9.99739 5.63537C10.6823 5.08526 11.5638 4.82478 12.4479 4.91123L39.1157 7.51896Z" fill="#3B5C60"/>
<path d="M12.9627 2.07493C14.4855 2.22383 16.0083 2.37274 17.5311 2.52165C19.2254 2.68732 20.8771 3.09332 22.5711 3.25898C24.9 3.48671 27.2352 3.49218 29.5574 3.69765C31.3017 3.85198 33.1698 4.03914 34.8957 4.36906C36.2828 4.63423 37.5756 5.53114 38.9591 5.71719C39.6329 5.8078 40.2137 5.59538 40.868 5.65936C42.0141 5.77143 42.3761 6.68687 42.9038 7.56984C43.0011 7.73267 43.4886 8.48169 43.4293 8.66029C43.3574 8.87638 43.1707 8.89978 43.1765 9.18566C43.1842 9.57208 43.2327 9.96799 43.2848 10.3508C43.4191 11.3365 43.2703 12.4777 43.2299 13.4694C43.1044 16.5497 43.4321 19.6133 42.7992 22.7042C42.6805 23.2835 42.3445 23.8024 42.2881 24.3792C42.1664 25.6234 42.0304 26.8124 42.1504 28.0602C42.3325 29.9521 42.0603 31.8225 41.8744 33.7243C41.7 35.5071 41.6856 37.3419 41.8186 39.1247C41.8836 39.9949 42.2096 40.7864 41.9192 41.6473C41.7021 42.2911 41.2507 43.0472 41.1485 43.7044C40.9438 45.021 41.4739 46.4353 40.7421 47.5765C40.4442 48.041 40.4019 48.5007 39.7817 48.7321C39.2195 48.942 38.5413 49.1949 37.9363 49.1357C37.2942 49.073 36.652 49.0102 36.0099 48.9474C35.4572 48.8933 34.5112 48.9816 34.0311 48.7267C33.5785 48.4865 32.9447 48.5254 32.4303 48.4751C31.8792 48.4212 31.3765 48.2498 30.8322 48.1966C30.4235 48.1566 30.1226 47.9702 29.6817 48.0297C29.2241 48.0916 28.9273 48.2548 28.4556 48.2087C27.9953 48.1637 27.3912 48.0032 26.9393 48.0876C25.7704 48.3057 24.3674 47.8592 23.2267 47.6974C22.8026 47.6372 22.392 47.4377 21.9628 47.4108C21.269 47.3673 20.5966 47.5624 19.8987 47.4942C19.2967 47.4353 18.743 47.5034 18.1531 47.4457C16.4488 47.2791 14.7552 46.9912 13.0255 46.8221C11.2531 46.6488 8.92898 46.7192 7.21842 46.1863C6.19169 45.8665 5.20294 45.4211 4.19247 45.0958C3.46758 44.8625 3.43661 44.8266 3.34493 44.1029C3.22236 43.1354 2.16923 42.2975 2.49084 41.3301C2.625 40.9265 2.57592 40.4137 2.62863 39.9921C2.68101 39.5731 2.95417 39.2201 2.99405 38.8122C3.02693 38.476 3.08504 38.4835 3.27013 38.2619C3.64607 37.8118 3.43167 36.4605 3.59997 35.8832C3.89314 34.8777 4.64107 34.1966 4.11406 33.183C3.87419 32.7217 4.29447 31.9064 4.34144 31.426C4.48518 29.956 4.74765 28.5505 4.89088 27.0857C4.97542 26.2212 4.81327 25.3223 4.89777 24.4582C4.94613 23.9635 5.47127 24.9441 5.13221 23.9785C5.02603 23.6762 5.16701 23.3687 5.06211 23.0617C4.9814 22.8254 4.96347 22.5077 4.98771 22.2598C5.03902 21.7351 5.09033 21.2104 5.14164 20.6857C5.24817 19.5962 5.48254 18.478 5.58583 17.4218C5.64678 16.7984 5.70774 16.175 5.76869 15.5517C5.80443 15.1862 5.96233 14.85 5.9991 14.474C6.02826 14.1758 6.00726 13.292 6.09347 13.58C6.01362 14.1818 5.98576 13.3318 6.02655 12.9147C6.09519 12.2127 7.49033 5.11889 7.85222 4.82822C8.21412 4.53756 8.5178 4.13068 8.74413 3.73375C9.09678 3.11527 9.65349 2.96656 10.2726 2.73549C10.7035 2.57465 11.5455 2.54756 12.0022 2.59222C12.3033 2.25493 12.4315 2.02298 12.9627 2.07493Z" stroke="#3B5C60" stroke-width="4" stroke-linecap="round"/>
<path d="M2.62549 44.979C2.67491 46.3053 3.69446 47.5497 4.33544 48.6636C4.5588 49.0518 4.78403 49.4349 5.04374 49.8013C5.18068 49.9945 5.3021 50.241 5.55527 50.2922C5.88264 50.3584 6.22047 50.3644 6.54914 50.428C7.59115 50.6294 8.61797 50.9179 9.65017 51.1624C10.7575 51.4247 11.8297 51.7296 12.9641 51.8405C13.5959 51.9023 14.2501 51.8883 14.8837 51.8995C16.3101 51.9245 17.7118 52.1031 19.1322 52.2087C19.6213 52.2451 20.1193 52.1954 20.6093 52.1826C21.3649 52.1629 22.1244 52.2706 22.8739 52.3493C24.2934 52.4984 25.6588 52.7148 27.028 53.1192C27.5286 53.267 28.0239 53.4251 28.5058 53.6241C28.6886 53.6996 28.8121 53.7464 29.0097 53.7217C29.6015 53.6476 30.1714 53.5978 30.7691 53.5687C31.8851 53.5143 33.011 53.6292 34.1311 53.6207C35.0168 53.6139 35.8778 53.6177 36.756 53.7036C37.1815 53.7452 37.5958 53.7278 38.0233 53.7696C38.3176 53.7983 38.4048 53.8966 38.652 54.0048" stroke="#3B5C60" stroke-width="4" stroke-linecap="round"/>
<path d="M14.7338 28.8367C15.682 28.9295 16.6309 29.0171 17.5785 29.1149C18.3375 29.1933 19.0637 29.4478 19.8171 29.5215C20.3112 29.5698 20.8053 29.6181 21.2994 29.6664C22.6893 29.8023 24.0053 30.1171 25.3611 30.4389C26.2822 30.6576 27.1955 30.8685 28.1393 30.9608C28.6228 31.0081 29.1043 30.9829 29.5889 31.04C30.2122 31.1135 30.8671 31.3012 31.4496 31.5313C31.6441 31.6081 31.9521 31.6852 32.0974 31.8483C32.3389 32.1194 32.1355 32.7681 32.106 33.069C32.0551 33.59 31.6733 34.0755 31.5074 34.5743C31.3441 35.0655 30.9527 35.5172 30.6106 35.8941C30.2105 36.335 29.9016 36.7916 29.3418 37.0559C28.6025 37.405 28.0133 37.486 27.1863 37.4359C25.2443 37.3182 23.443 37.1309 21.5522 37.6217C20.7487 37.8303 19.8866 37.3004 19.1668 36.9714C18.2142 36.5361 17.4209 36.1056 16.7555 35.3143C16.3703 34.8562 15.9433 34.3428 15.7882 33.7566C15.6203 33.1217 15.3847 32.468 15.1273 31.864C15.0857 31.7662 14.1978 29.992 14.7697 29.7786" stroke="#3B5C60" stroke-width="4" stroke-linecap="round"/>
<path d="M27.4484 19.1961C27.2332 17.7697 26.0673 17.3095 24.717 17.1775C24.2062 17.1275 23.8614 17.0969 23.4051 17.362C22.9655 17.6174 22.5248 17.8478 22.1256 18.1613C21.8471 18.38 21.6182 18.4912 21.4705 18.827C21.3318 19.1422 21.3398 19.5094 21.3068 19.8466C21.2512 20.4155 21.353 21.344 21.8942 21.6904C22.7518 22.2391 23.8913 22.4558 24.8406 22.8195C25.6321 23.1227 26.3825 23.1028 27.0776 22.5517C27.2279 22.4325 28.8962 20.5809 28.4288 20.2928" stroke="#3B5C60" stroke-width="4" stroke-linecap="round"/>
</svg>
