<svg width="58" height="58" viewBox="0 0 58 58" fill="none" xmlns="http://www.w3.org/2000/svg">
<path d="M26.8939 38.3804C38.826 40.7334 41.185 42.4642 41.185 30.0121C41.185 25.962 43.5759 12.3231 39.1434 9.95137C29.2628 4.6646 12.5192 10.6631 8.97325 21.4147C0.81748 46.1433 46.5227 58.5174 49.2379 43.4242C51.3077 31.9189 49.4412 23.987 40.1642 18.7781C31.7244 14.0392 21.1585 27.2551 22.9241 35.2853C24.1841 41.0157 33.7704 44.393 38.6897 44.5705C46.5082 44.8527 48.5009 43.851 49.2379 35.2853C50.5212 20.3702 45.3549 15.683 30.977 15.683" stroke="white" stroke-width="15" stroke-linecap="round"/>
<circle cx="30" cy="28" r="24" fill="white"/>
<path d="M21.1665 19.1668V39.8335C21.1665 40.5186 21.4387 41.1757 21.9231 41.6602C22.4076 42.1447 23.0647 42.4168 23.7498 42.4168H39.2498C39.935 42.4168 40.5921 42.1447 41.0765 41.6602C41.561 41.1757 41.8332 40.5186 41.8332 39.8335V24.7752C41.8331 24.4311 41.7643 24.0904 41.6308 23.7732C41.4973 23.456 41.3017 23.1687 41.0556 22.9282L35.3206 17.3197C34.838 16.8478 34.1898 16.5836 33.5148 16.5835H23.7498C23.0647 16.5835 22.4076 16.8557 21.9231 17.3401C21.4387 17.8246 21.1665 18.4817 21.1665 19.1668Z" fill="white" stroke="#3B5C60" stroke-width="3" stroke-linecap="round" stroke-linejoin="round"/>
<path d="M34.083 16.5835V21.7502C34.083 22.4353 34.3552 23.0924 34.8396 23.5769C35.3241 24.0613 35.9812 24.3335 36.6663 24.3335H41.833" fill="white"/>
<path d="M34.083 16.5835V21.7502C34.083 22.4353 34.3552 23.0924 34.8396 23.5769C35.3241 24.0613 35.9812 24.3335 36.6663 24.3335H41.833" stroke="#3B5C60" stroke-width="3" stroke-linejoin="round"/>
<path d="M20.649 17.9302C20.6096 21.1199 20.1387 24.2458 20.1387 27.4265C20.1387 29.2891 19.9346 31.1195 19.9346 32.9826C19.9346 34.107 19.9346 35.2315 19.9346 36.3559C19.9346 37.3401 19.856 38.6305 20.1897 39.5648C20.4252 40.2241 20.4822 40.8528 20.8077 41.5038C21.3534 42.5952 22.8051 42.9131 23.9032 43.1876C24.5403 43.3469 25.0563 43.5082 25.7118 43.5505C26.234 43.5842 27.0222 43.9909 27.5317 43.8453C28.3166 43.621 29.2974 43.7489 30.1396 43.7489C32.4091 43.7489 34.6521 43.6469 36.9203 43.6469C38.4434 43.6469 40.8189 43.4631 41.7224 41.9574C42.2219 41.1248 42.9097 40.1538 42.9923 39.1623C43.0972 37.9036 43.0758 36.536 42.9923 35.2844C42.8864 33.696 42.8959 32.1045 42.8959 30.505C42.8959 29.3288 42.9591 28.1288 42.8733 26.9559C42.8315 26.385 42.8391 25.455 42.6125 24.9263C41.8393 23.1221 41.4346 20.8923 39.6303 19.7897C39.2594 19.563 38.9024 19.1753 38.5872 18.8713C38.1283 18.4288 37.5748 18.0518 37.0677 17.6694C36.6763 17.3742 36.6194 17.1536 36.3874 16.7282C35.7176 15.5003 35.5895 15.7035 34.3237 15.5036C33.5875 15.3874 32.8068 15.0848 32.0559 15.1975C31.7744 15.2397 31.8016 15.3517 31.6477 15.4583C31.4394 15.6025 30.7732 15.4809 30.5365 15.4809C28.5516 15.4809 26.6041 15.7871 24.6289 15.7871C23.915 15.7871 23.2162 15.8021 22.5085 15.7077C21.9267 15.6301 21.7385 15.685 22.5312 15.685C24.3455 15.685 26.1597 15.685 27.9739 15.685C28.9067 15.685 29.7583 15.4292 30.6726 15.2768C30.9348 15.2331 32.2655 15.0764 32.1353 15.0727C30.5544 15.0288 28.9661 15.0727 27.3843 15.0727C26.5795 15.0727 25.7838 15.1672 24.9804 15.1748C23.9601 15.1844 22.9486 15.1244 21.9529 15.4016C21.4225 15.5492 21.0536 15.6694 20.9098 16.2293C20.7212 16.9633 20.6423 17.7465 20.3201 18.4404C20.2161 18.6645 19.849 19.159 19.8326 19.3815C19.7904 19.9505 19.5941 20.5649 19.447 21.1164C19.3306 21.553 19.4244 22.1144 19.4244 22.5564C19.4244 23.2594 19.4244 23.9625 19.4244 24.6655C19.4244 25.8788 19.3744 27.1054 19.447 28.3166C19.5128 29.4126 19.7305 30.505 19.7305 31.6049" stroke="#3B5C60" stroke-linecap="round"/>
<path d="M33.609 17.2158C33.609 18.0133 33.609 18.8108 33.609 19.6083C33.609 19.7029 33.6534 20.4701 33.4559 20.4701C33.3973 20.4701 33.2233 19.5222 33.2008 19.4042C33.1273 19.0182 33.0252 18.5983 32.9967 18.2136C32.9738 17.9041 32.9193 17.5844 32.7416 17.9755C32.5067 18.4923 32.6905 19.3174 32.6905 19.8691C32.6905 20.4273 32.7926 20.9683 32.7926 21.5246C32.7926 22.4107 33.0388 23.2642 33.4843 24.0305C34.0203 24.9525 34.9167 25.1355 35.8428 25.5273C36.6941 25.8874 37.5609 25.9139 38.4677 25.9865C38.7618 26.01 40.6757 26.3499 40.8546 25.9922" stroke="#3B5C60" stroke-linecap="round"/>
</svg>
