<svg width="58" height="58" viewBox="0 0 58 58" fill="none" xmlns="http://www.w3.org/2000/svg">
<path d="M26.8939 38.3804C38.826 40.7334 41.185 42.4642 41.185 30.0121C41.185 25.962 43.5759 12.3231 39.1434 9.95137C29.2628 4.6646 12.5192 10.6631 8.97325 21.4147C0.81748 46.1433 46.5227 58.5174 49.2379 43.4242C51.3077 31.9189 49.4412 23.987 40.1642 18.7781C31.7244 14.0392 21.1585 27.2551 22.9241 35.2853C24.1841 41.0157 33.7704 44.393 38.6897 44.5705C46.5082 44.8527 48.5009 43.851 49.2379 35.2853C50.5212 20.3702 45.3549 15.683 30.977 15.683" stroke="white" stroke-width="15" stroke-linecap="round"/>
<circle cx="30" cy="28" r="24" fill="white"/>
<circle cx="29.1091" cy="30.1091" r="8.10909" stroke="#3B5C60" stroke-width="6"/>
<path d="M21.2266 38.0671C22.0222 38.4187 22.64 39.0985 23.3772 39.5485C24.3558 40.146 25.4106 40.6138 26.5581 40.7216C27.335 40.7947 28.0601 40.9096 28.8441 40.9096C29.3617 40.9096 29.8814 40.9128 30.3932 40.9811C31.1289 41.0792 31.8916 41.12 32.4762 40.5562C33.2583 39.802 34.3122 39.4098 35.1683 38.7439C36.3188 37.8491 37.511 37.0611 38.4056 35.8789C38.8082 35.3469 39.1529 34.7761 39.3644 34.1418C39.6744 33.2117 39.6518 32.1187 39.7704 31.1489C39.9173 29.9484 39.9735 28.6828 39.9735 27.4717C39.9735 26.8205 39.9549 26.2539 39.8043 25.6181C39.7031 25.1908 39.6342 24.4197 39.229 24.1592C39.0872 24.0681 38.7518 24.0509 38.6876 23.9224" stroke="#3B5C60" stroke-linecap="round"/>
<path d="M21.2942 37.9319C20.8718 37.9216 20.3979 37.4196 20.3467 36.9844C20.281 36.4264 19.7301 35.9315 19.6699 35.3601C19.6561 35.2288 19.5405 34.8779 19.4368 34.8187C19.205 34.6862 19.1751 33.964 19.1134 33.7358C18.9393 33.0916 18.4549 32.5145 18.384 31.8408C18.3668 31.6768 18.2399 31.5346 18.181 31.3821C18.1075 31.192 18.0967 30.9822 18.0118 30.7955C17.9073 30.5656 17.9779 30.1959 17.9779 29.9458C17.9779 29.1769 17.9012 28.3302 18.1283 27.5921C18.2522 27.1897 18.3192 26.8417 18.4216 26.404C18.5303 25.9395 18.7655 25.5087 18.9104 25.0579C19.0207 24.7148 19.2003 24.3803 19.3616 24.0578C19.5185 23.744 19.7773 23.475 19.9068 23.1441C20.0761 22.7113 20.4721 21.9572 20.9032 21.7567C21.3939 21.5285 21.7427 21.1545 22.174 20.8431C23.059 20.2039 24.1614 19.5975 25.2609 19.4557C26.0703 19.3512 26.8927 19.3203 27.7086 19.3203C28.2731 19.3203 29.0453 19.331 29.5134 18.9481C29.8885 18.6412 30.3626 18.8209 30.8368 18.8466C31.0364 18.8573 31.2643 18.8924 31.461 18.9293C31.9423 19.0195 32.4968 19.0577 32.9574 19.2113C33.777 19.4844 34.2276 20.1697 34.9652 20.5385C35.4045 20.7581 35.7728 21.0055 36.1534 21.3168C36.5235 21.6197 36.9162 21.8988 37.2663 22.2305C37.723 22.6631 38.0323 23.1573 38.4168 23.6517C38.6151 23.9066 38.8176 24.1618 39.0259 24.3962C39.1488 24.5344 39.1362 24.8363 39.2628 24.9376C39.3321 24.993 39.4282 25.4342 39.432 25.5317C39.4447 25.8627 39.5834 26.2266 39.635 26.5619" stroke="#3B5C60" stroke-linecap="round"/>
<path d="M29.6861 18.7788C28.7976 18.7788 28.2513 18.8924 27.8588 18.9142C27.6899 18.9235 27.5274 19.0821 27.3549 19.1134C27.1454 19.1515 26.9517 19.2097 26.7421 19.2563C26.3055 19.3533 25.862 19.3739 25.4224 19.5233C24.945 19.6854 24.5136 19.9178 24.0989 20.2038C23.6807 20.4922 23.3746 20.8856 22.9183 21.1137C22.6504 21.2476 22.3723 21.3772 22.0911 21.4709C21.9284 21.5251 21.7198 21.5251 21.6173 21.689C21.427 21.9935 21.0267 22.1565 20.8541 22.4673C20.5456 23.0226 20.6339 23.8703 20.7525 24.4638" stroke="#3B5C60" stroke-linecap="round"/>
<path d="M30.6405 25.3532C29.7703 25.3532 28.9001 25.3532 28.03 25.3532C27.5003 25.3532 27.1088 25.3973 26.6243 25.6209C26.3348 25.7545 26.0335 25.8087 25.7542 25.9705C25.5342 26.0978 25.3782 26.3018 25.2038 26.4762C24.6262 27.0538 24.3795 27.9854 24.144 28.7706C24.003 29.2407 23.7461 29.6718 23.7461 30.1725C23.7461 30.8825 23.8646 31.5133 24.2481 32.1137C24.5309 32.5563 24.8541 32.9781 25.0848 33.4524C25.389 34.0776 25.6223 34.7752 26.2376 35.1927C26.8626 35.6168 27.7158 35.5274 28.4316 35.5274C29.0092 35.5274 29.6673 35.6146 30.2351 35.5199C30.774 35.4301 31.2641 34.9854 31.7449 34.7576C32.8405 34.2387 33.123 32.8752 33.7195 31.9277C34.0447 31.4112 34.0542 30.6506 34.0542 30.061C34.0542 28.8241 33.6376 27.6758 33.1134 26.5617C32.9562 26.2278 32.7235 25.8662 32.4775 25.5874C32.1348 25.1991 31.5662 25.2462 31.1388 25.0519C31.0469 25.0102 30.7329 25.0592 30.8115 25.0817C30.9685 25.1266 30.9583 25.2274 31.0421 25.3532" stroke="#3B5C60" stroke-linecap="round"/>
<circle cx="42" cy="16" r="3" fill="#3B5C60"/>
<path d="M41.0563 13.432C40.7799 13.432 40.1537 13.3595 40.0449 13.7404C39.9428 14.0974 39.8661 14.4674 39.7666 14.8157C39.6918 15.0777 39.5686 15.287 39.447 15.5301C39.3093 15.8056 39.4347 16.5 39.5523 16.7483C39.6996 17.0591 39.8284 17.3788 40.011 17.6657C40.1219 17.84 40.2531 18.1251 40.4472 18.2222C40.6146 18.3059 40.8065 18.3497 40.9585 18.4741C41.5537 18.961 42.251 18.9241 42.9513 18.8463C43.5838 18.776 43.935 17.8861 44.2672 17.4589C44.4925 17.1693 44.6296 16.6136 44.6432 16.2595C44.6506 16.0682 44.681 15.8183 44.6395 15.6316C44.5874 15.3972 44.4514 15.2121 44.3876 14.9886C44.3104 14.7186 44.2195 14.5512 44.0642 14.3269C43.929 14.1315 43.758 14.1034 43.5942 13.9396C43.275 13.6204 42.7482 13.605 42.376 13.3982C42.0252 13.2033 41.7045 13.1613 41.312 13.1613C40.9562 13.1613 40.5149 13.0095 40.5149 13.432" stroke="#3B5C60" stroke-linecap="round"/>
</svg>
