<svg width="58" height="58" viewBox="0 0 58 58" fill="none" xmlns="http://www.w3.org/2000/svg">
<path d="M26.8939 38.3804C38.826 40.7334 41.185 42.4642 41.185 30.0121C41.185 25.962 43.5759 12.3231 39.1434 9.95137C29.2628 4.6646 12.5192 10.6631 8.97325 21.4147C0.81748 46.1433 46.5227 58.5174 49.2379 43.4242C51.3077 31.9189 49.4412 23.987 40.1642 18.7781C31.7244 14.0392 21.1585 27.2551 22.9241 35.2853C24.1841 41.0157 33.7704 44.393 38.6897 44.5705C46.5082 44.8527 48.5009 43.851 49.2379 35.2853C50.5212 20.3702 45.3549 15.683 30.977 15.683" stroke="white" stroke-width="15" stroke-linecap="round"/>
<circle cx="30" cy="30" r="24" fill="white"/>
<mask id="path-3-inside-1_248:387" fill="white">
<rect x="16" y="20" width="28" height="19" rx="1"/>
</mask>
<rect x="16" y="20" width="28" height="19" rx="1" fill="white" stroke="#3B5C60" stroke-width="6" mask="url(#path-3-inside-1_248:387)"/>
<path d="M29.4528 29.6422L19.8095 23.337C18.9775 22.793 19.3627 21.5 20.3567 21.5H39.6433C40.6373 21.5 41.0225 22.793 40.1905 23.337L30.5473 29.6422C30.2148 29.8596 29.7852 29.8596 29.4528 29.6422Z" stroke="#3B5C60" stroke-width="3"/>
<path d="M18.9429 24.2435C19.4198 24.2435 19.8013 24.2791 20.2227 24.5433C20.8138 24.914 21.3501 25.374 21.9202 25.7749C22.4515 26.1487 23.0139 26.4984 23.4998 26.9316C23.7745 27.1764 24.0273 27.512 24.378 27.6545C24.6999 27.7853 24.8709 27.9958 25.1224 28.2221C25.6253 28.6748 26.1929 29.0316 26.7502 29.4109C27.0299 29.6012 27.3214 29.7822 27.5829 29.9972C27.6963 30.0905 27.8041 30.2037 27.9444 30.257C28.2075 30.3567 28.4492 30.5559 28.6753 30.7255C28.8532 30.8589 28.9455 30.846 29.184 30.846C29.3539 30.846 29.4595 31.0388 29.6419 31.0388C29.8017 31.0388 29.9674 31.052 30.1265 31.0361C30.3038 31.0183 30.4053 30.887 30.5602 30.8192C30.8453 30.6945 31.1408 30.5938 31.4223 30.4604C31.8156 30.2741 32.0912 29.9828 32.4157 29.7C32.6766 29.4726 32.9638 29.2936 33.2082 29.0628C33.5325 28.7565 34.0704 28.6852 34.4612 28.4845C34.8887 28.265 35.3576 28.1471 35.7142 27.8098C36.0383 27.5032 36.4067 27.3036 36.7772 27.0628C37.6253 26.5115 38.3467 25.8125 39.1601 25.21C39.6987 24.811 40.1244 24.4665 40.5309 23.9329C40.7032 23.7068 41.0837 23.6252 41.2083 23.376" stroke="#3B5C60" stroke-linecap="round"/>
<path d="M16.4369 21.1841C16.4238 22.183 16.3398 23.1762 16.3398 24.1772M16.3398 24.1772C16.3398 25.1907 16.3398 26.2042 16.3398 27.2178C16.3398 28.5005 16.3398 29.7832 16.3398 31.066C16.3398 31.827 16.3884 32.5927 16.3884 33.3464C16.3884 34.2579 16.3884 35.1694 16.3884 36.0808C16.3884 36.3543 16.5165 36.524 16.5932 36.7776C16.6826 37.0729 16.7013 37.4535 16.9329 37.6803C17.182 37.9242 17.3555 38.1134 17.7092 38.1923C18.0924 38.2778 18.4835 38.3727 18.8738 38.4193C20.213 38.5792 21.5665 38.7625 22.9173 38.7625C24.5159 38.7625 26.1803 38.6296 27.7695 38.81C28.2567 38.8653 28.6571 38.8028 29.1443 38.773C30.0609 38.7169 30.9778 38.6862 31.8939 38.6305C32.5414 38.5911 33.1581 38.6819 33.7917 38.6674C34.7636 38.6453 35.7031 38.5058 36.6814 38.6305C37.1311 38.6878 37.5964 38.7408 38.0347 38.8575C38.2169 38.906 38.4029 39 38.5954 39C38.9983 39 39.4224 38.9311 39.8246 38.8944C40.3085 38.8504 40.7729 38.8179 41.2533 38.7413C41.6238 38.6823 42.021 38.6674 42.3963 38.6674C42.6327 38.6674 42.9477 38.7223 43.1727 38.6437C43.4093 38.5609 43.3932 37.7386 43.4153 37.5536C43.5804 36.1674 43.7321 34.7797 43.9247 33.3966C44.0216 32.701 43.9975 32.011 43.9975 31.3088C43.9975 30.3155 43.9975 29.3222 43.9975 28.3289C43.9975 27.1662 43.852 26.0101 43.852 24.8449C43.852 24.3459 43.8768 23.8395 43.8493 23.3405C43.8346 23.0748 43.7352 22.822 43.6848 22.5619C43.6303 22.2803 43.6041 21.9938 43.5366 21.7146C43.5088 21.5997 43.5083 21.2987 43.3883 21.2316C42.5442 20.7593 41.6316 20.1735 40.636 20.0888C40.0146 20.0359 39.3777 20.0826 38.741 20.1125C37.43 20.1741 36.0972 20.0429 34.7972 20.255C34.1008 20.3687 33.3279 20.287 32.6271 20.2788C31.635 20.2672 30.6771 20.1473 29.6996 20.0465C28.6989 19.9434 27.6351 20.0439 26.6293 20.0439C25.9931 20.0439 25.3569 20.0439 24.7207 20.0439C23.7717 20.0439 22.8273 20.1864 21.8741 20.1864C21.051 20.1864 20.2279 20.1864 19.4048 20.1864C18.8397 20.1864 18.251 20.1612 17.6985 20.2814C17.4763 20.3298 17.2503 20.424 17.0219 20.424C16.9249 20.424 16.7907 20.4004 16.7038 20.4477C16.5301 20.5422 16.8359 20.55 16.7036 20.7165C16.5415 20.9207 16.3883 21.2762 16.3883 21.5642C16.3883 22.4354 16.3398 23.3022 16.3398 24.1772Z" stroke="#3B5C60" stroke-linecap="round"/>
</svg>
