<svg width="53" height="62" viewBox="0 0 53 62" fill="none" xmlns="http://www.w3.org/2000/svg">
<path d="M46.9554 27.6087C38.6159 29.8433 30.5093 32.1054 21.8393 32.3097C17.8162 32.4045 15.7166 31.9719 20.9622 31.9811C29.1479 31.9956 53.4689 32.5762 45.4272 34.1049C43.2291 34.5228 27.187 32.9057 33.7044 31.1593C36.7405 30.3458 49.2772 29.1807 39.6803 31.587C33.5466 33.1249 25.952 32.7664 19.6796 32.6629C18.7452 32.6475 9.54177 33.3742 9.29429 33.8676C8.17089 36.1077 19.7068 47.4446 21.6285 49.6118C24.0457 52.3376 20.8519 47.2062 20.124 46.5207C19.1816 45.6334 12.1961 37.3733 11.3116 37.6103C10.9169 37.7161 18.2913 46.9039 18.8207 47.5462C21.2921 50.5445 23.8625 53.5877 26.4969 56.4229C27.9208 57.9554 24.8636 50.9707 24.4137 50.3309C21.3703 46.0025 17.43 42.4354 13.6555 38.7858C11.2592 36.4688 9.11519 33.3197 6.21979 31.6481C2.70767 29.6204 16.1122 20.5868 18.2887 19.0588C19.0824 18.5015 25.3541 13.0356 23.6894 13.5538C20.8267 14.4449 16.133 18.9256 15.2203 21.9098C14.5187 24.2039 10.3175 27.4453 13.8888 22.8302C18.5551 16.8001 29.408 12.4804 31.843 5.28238" stroke="#3B5C60" stroke-width="10" stroke-linecap="round"/>
</svg>
