<svg width="58" height="58" viewBox="0 0 58 58" fill="none" xmlns="http://www.w3.org/2000/svg">
<path d="M26.8939 38.3804C38.826 40.7334 41.185 42.4642 41.185 30.0121C41.185 25.962 43.5759 12.3231 39.1434 9.95137C29.2628 4.6646 12.5192 10.6631 8.97325 21.4147C0.81748 46.1433 46.5227 58.5174 49.2379 43.4242C51.3077 31.9189 49.4412 23.987 40.1642 18.7781C31.7244 14.0392 21.1585 27.2551 22.9241 35.2853C24.1841 41.0157 33.7704 44.393 38.6897 44.5705C46.5082 44.8527 48.5009 43.851 49.2379 35.2853C50.5212 20.3702 45.3549 15.683 30.977 15.683" stroke="white" stroke-width="15" stroke-linecap="round"/>
<circle cx="30" cy="30" r="24" fill="white"/>
<path d="M30.8543 30.142C32.197 31.4914 33.7721 32.5876 35.5038 33.3779L38.8599 30.0218C39.1607 29.7197 39.5183 29.4799 39.9121 29.3163C40.3059 29.1527 40.7282 29.0686 41.1546 29.0687C42.0236 29.0687 42.8406 29.4091 43.4534 30.0218L48.0469 34.6074C48.3494 34.9088 48.5894 35.2671 48.753 35.6616C48.9165 36.0561 49.0005 36.4791 49 36.9062C49 37.7752 48.6596 38.5922 48.0469 39.205L43.7898 43.4621C42.8126 44.4433 41.463 45 40.0773 45C39.785 45 39.5046 44.976 39.2283 44.9279C33.8298 44.0388 28.4754 41.1674 24.1543 36.8501C19.8371 32.5369 16.9697 27.1864 16.0686 21.7718M30.8543 30.142L29.7949 31.2039C29.7942 31.2033 29.7936 31.2026 29.7929 31.202M30.8543 30.142L29.791 31.2C29.7916 31.2007 29.7923 31.2013 29.7929 31.202M30.8543 30.142C29.5082 28.7991 28.416 27.2239 27.6304 25.4924L31.692 18.595M29.7929 31.202C31.2624 32.6783 32.986 33.8777 34.8811 34.7425L35.8283 35.1748L36.5645 34.4386L39.9205 31.0825L39.9229 31.0802C40.0843 30.918 40.2762 30.7893 40.4875 30.7016C40.6988 30.6138 40.9254 30.5686 41.1543 30.5687H41.1546C41.6241 30.5687 42.06 30.7498 42.3927 31.0825L42.3936 31.0834L46.9871 35.669L46.9882 35.6701C47.1507 35.8319 47.2795 36.0243 47.3673 36.2361C47.4552 36.448 47.5003 36.6751 47.5 36.9044L47.5 36.9062C47.5 37.3757 47.3189 37.8116 46.9862 38.1443L42.7291 42.4015L42.7269 42.4037C42.0334 43.1001 41.0671 43.5 40.0773 43.5C39.8687 43.5 39.6744 43.483 39.4853 43.4501L39.4721 43.4478L39.4721 43.4479C34.4189 42.6156 29.3413 39.9121 25.2144 35.789C21.0934 31.6717 18.3927 26.5983 17.5484 21.5267M29.7929 31.202C28.3197 29.7318 27.1243 28.0075 26.2644 26.1121L25.8353 25.1662L26.5697 24.4317L29.9258 21.0756C30.2584 20.743 30.4396 20.307 30.4396 19.8375V19.8371C30.4396 19.6083 30.3945 19.3817 30.3067 19.1704M17.5484 21.5267C17.5485 21.5272 17.5486 21.5277 17.5486 21.5282L16.0686 21.7718M17.5484 21.5267C17.5483 21.5263 17.5483 21.526 17.5482 21.5256L16.0686 21.7718M17.5484 21.5267C17.3559 20.3547 17.7444 19.1366 18.6007 18.2733L18.5985 18.2755L17.5383 17.2143M16.0686 21.7718C15.7962 20.1178 16.3449 18.4158 17.5383 17.2143M17.5383 17.2143L18.6025 18.2714M17.5383 17.2143L21.8034 12.9532C22.1043 12.651 22.4619 12.4112 22.8557 12.2476C23.2495 12.084 23.6718 11.9999 24.0982 12C24.9672 12 25.7842 12.3404 26.3969 12.9532L30.9864 17.5427C31.2886 17.8436 31.5284 18.2012 31.692 18.595M18.6025 18.2714L31.9396 19.8375C31.9397 19.4111 31.8555 18.9888 31.692 18.595M18.6025 18.2714L22.8636 14.0143L22.8664 14.0115C23.0279 13.8493 23.2198 13.7207 23.4311 13.6329C23.6424 13.5451 23.869 13.4999 24.0978 13.5L24.0982 13.5C24.5676 13.5 25.0036 13.6811 25.3363 14.0138L29.9258 18.6034L29.9281 18.6057C30.0903 18.7671 30.2189 18.9591 30.3067 19.1704M18.6025 18.2714L30.3067 19.1704M31.692 18.595L30.3067 19.1704" stroke="#3B5C60" stroke-width="3"/>
<path d="M24.7834 12.5303C25.3816 12.7197 25.8469 13.088 26.3962 13.3771C26.8937 13.639 27.3271 13.9273 27.7537 14.292C28.283 14.7445 28.6659 15.3102 29.2261 15.7304C30.0863 16.3755 30.5363 17.2044 31.0986 18.0879C31.5909 18.8616 31.5887 20.0631 30.9879 20.7306C30.537 21.2316 30.082 21.7092 29.6262 22.203C29.4568 22.3865 29.4068 21.824 29.3198 22.3945C29.2708 22.7154 29.174 23.0373 28.9963 23.3137C28.5894 23.9467 28.2597 24.2396 28.2304 25.0329C28.2225 25.2458 28.1348 25.3279 28.1963 25.5563C28.2612 25.7972 28.3836 25.9869 28.3836 26.2415C28.3836 26.5482 28.4326 26.9168 28.5368 27.2032C29.1889 28.9965 31.2315 30.1893 32.5624 31.4502C32.9815 31.8472 33.35 32.1951 33.8221 32.5396C34.1511 32.7797 34.2991 32.9714 34.6689 32.9098C34.928 32.8666 35.2624 32.9821 35.5413 32.9821C35.7346 32.9821 35.9479 33.0081 36.1371 32.9651C36.4354 32.8973 36.6317 32.6308 36.8903 32.4885C37.2521 32.2895 37.7593 31.9336 37.9627 31.5608C38.184 31.155 38.6247 31.0684 38.9712 30.8374C39.688 30.3595 40.4665 30.0714 41.3288 30.0714C42.6784 30.0714 44.3979 30.6762 45.1332 31.8842C45.7188 32.8464 46.4324 33.6964 47.0737 34.6077C47.5522 35.2878 48.2565 35.9113 48.4482 36.7738C48.5222 37.107 48.4268 37.3058 48.2226 37.544C47.7777 38.0631 47.4272 38.5107 47.0737 39.093C46.6578 39.7779 46.3451 40.778 45.6949 41.2889C45.5912 41.3703 45.2906 41.8007 45.1246 41.7059C44.9464 41.6041 44.8287 41.7786 44.6395 41.9612C44.4653 42.1294 44.302 42.2465 44.0906 42.3655C43.6656 42.6046 43.5024 43.1431 43.1288 43.4336C42.8461 43.6535 42.4834 43.7028 42.1713 43.8762C41.964 43.9914 41.8383 44.1942 41.6351 44.3017C41.3374 44.4594 40.8059 44.4619 40.4521 44.472C39.7364 44.4924 39.0442 44.5205 38.3414 44.6209C37.7827 44.7007 37.0508 44.6875 36.5115 44.5826C35.972 44.4777 35.4834 44.1571 34.9711 43.9741C34.3729 43.7604 33.7159 43.6656 33.1582 43.3485C32.1863 42.7959 31.4461 42.1003 30.5879 41.391C30.1458 41.0256 29.6968 40.6114 29.3155 40.1824C29.1257 39.9689 29.224 39.9399 28.9623 39.7654C28.0537 39.1597 27.3307 38.2954 26.4984 37.6079C25.7796 37.0141 24.8725 36.6165 24.3153 35.8503C23.9603 35.3622 23.3321 34.9701 22.8684 34.5907C22.6661 34.4251 22.4395 34.2489 22.3025 34.0205C22.2407 33.9175 22.2749 33.8064 22.1876 33.7141C21.7905 33.2944 20.8238 32.7577 20.8003 32.1225C20.7892 31.8247 20.5671 31.5724 20.4173 31.331C20.1794 30.9477 19.9817 30.539 19.7279 30.165C19.3712 29.6394 18.9742 29.1016 18.5619 28.616C18.3778 28.3992 18.1623 28.202 18.0087 27.9607C17.9213 27.8233 17.9318 27.6344 17.847 27.5011C17.3303 26.6892 17.0469 25.8996 17.0469 24.9223C17.0469 24.2313 16.8771 23.572 16.8001 22.8881C16.7637 22.5644 16.7303 22.2316 16.6597 21.9136C16.6215 21.7417 16.5107 21.6459 16.5107 21.454C16.5107 20.6817 16.4341 19.9231 16.4341 19.1561C16.4341 18.8117 16.3734 18.5657 16.6256 18.3135C17.033 17.9061 17.4461 17.5084 17.847 17.0922C18.533 16.3797 19.1376 15.554 19.9577 14.9814C20.4309 14.651 20.9044 14.3496 21.3748 14.0239C21.734 13.7752 22.1017 13.5372 22.4429 13.258C22.7122 13.0376 23.0443 13.1025 23.328 12.9133" stroke="#3B5C60" stroke-linecap="round"/>
<path d="M18.6499 20.2524C19.9136 19.477 20.7244 18.1906 21.9243 17.3599C22.3224 17.0843 22.5826 16.6746 22.9805 16.4093C23.2726 16.2146 23.5888 16.0865 23.8743 15.869C24.0693 15.7204 24.291 15.5 24.5161 15.4099C24.9362 15.2419 25.1782 15.0863 25.6008 15.4343C26.3063 16.0153 26.7522 16.7929 27.3883 17.429C28.0212 18.0619 28.73 18.5952 28.9605 19.5171C29.0126 19.7256 29.2146 19.8775 28.9767 20.033C28.6146 20.2698 28.464 20.4318 28.2252 20.8049C27.5682 21.8315 26.957 22.9503 26.6205 24.128C26.5323 24.4369 26.421 24.3793 26.2142 24.5099C25.9376 24.6846 26.1086 25.9172 26.1086 26.2324C26.1086 27.2048 26.3178 28.2016 26.6774 29.1005C26.7996 29.406 26.757 29.8096 26.9496 30.0877C27.1373 30.3589 27.32 30.6043 27.5549 30.8393C27.9675 31.2519 28.2961 31.6946 28.7817 32.0296C29.2509 32.3531 29.7786 32.6007 30.2077 32.9761C30.6481 33.3615 31.0978 33.722 31.6092 34.0161C31.8889 34.1769 32.1781 34.3365 32.438 34.528C32.8675 34.8444 33.4657 34.7267 33.9736 34.7717C36.6514 35.009 37.6712 34.2999 39.5 31.8833C39.6331 31.7074 41.8996 32.1717 42.1595 32.1717C42.5521 32.1717 42.7531 32.3155 43.0736 32.5374C43.7628 33.0146 43.7918 33.6083 44.1339 34.2924C44.4349 34.8944 44.6256 35.5874 45.1901 36.0108C45.4188 36.1823 45.706 36.5333 45.706 36.8192C45.706 37.0912 45.7839 37.4976 45.6167 37.7292C45.2543 38.231 44.5817 38.5022 44.0729 38.818C43.4304 39.2168 42.6249 39.6148 42.0823 40.1423C41.4147 40.7914 41.1878 41.4389 40.1892 41.678C38.6421 42.0484 37.1894 41.363 35.7286 40.9873C34.5614 40.6872 33.5239 40.1573 32.3242 39.9392C31.3023 39.7534 30.287 39.2662 29.4683 38.6352C28.7605 38.0896 27.9946 37.6642 27.2217 37.2174C26.8663 37.0119 26.388 36.7591 26.2142 36.3642C25.8063 35.4371 24.8496 34.9573 24.2074 34.2233C23.9886 33.9733 23.7097 33.7037 23.5493 33.4149C23.4253 33.1917 23.2499 33.0082 23.143 32.773C23.0133 32.4876 22.9807 32.1674 22.8505 31.8833C22.6619 31.4718 22.5212 31.0921 22.3955 30.6524C22.2238 30.0512 21.837 29.6453 21.5018 29.1005C21.235 28.667 20.6974 28.0757 20.6974 27.5283C20.6974 27.3348 20.4754 27.1698 20.4211 26.9799C20.2096 26.2395 19.8782 25.4676 19.824 24.6805C19.7645 23.8178 19.3082 22.9464 19.0521 22.1212C18.8998 21.6304 18.9424 21.1291 18.9424 20.618" stroke="#3B5C60" stroke-linecap="round"/>
</svg>
